HIERARCHY
ROOT pelvis
{
  OFFSET 0 100 0
  CHANNELS 6 Xposition Yposition Zposition Zrotation Xrotation Yrotation
  JOINT pelvis_right_femur
  {
    OFFSET -10.78128 -3.44521 -0.5502486
    CHANNELS 3 Zrotation Xrotation Yrotation
    JOINT right_femur_tibia
    {
      OFFSET -0.8047443 -44.0398 -0.1307829
      CHANNELS 3 Zrotation Xrotation Yrotation
      JOINT right_tibia_foot
      {
        OFFSET 3.006224 -47.83518 -5
        CHANNELS 3 Zrotation Xrotation Yrotation
        End Site
        {
          OFFSET 0 -5 15
        }
      }
    }
  }
  JOINT pelvis_left_femur
  {
    OFFSET 10.78128 -3.44521 -0.5502486
    CHANNELS 3 Zrotation Xrotation Yrotation
    JOINT left_femur_tibia
    {
      OFFSET 0.8047443 -44.0398 -0.1307829
      CHANNELS 3 Zrotation Xrotation Yrotation
      JOINT left_tibia_foot
      {
        OFFSET -4.370144 -48.10324 -4.275266
        CHANNELS 3 Zrotation Xrotation Yrotation
        End Site
        {
          OFFSET 0 -5 15
        }
      }
    }
  }
  JOINT pelvis_spine1
  {
    OFFSET 0 6.468898 -3.129235
    CHANNELS 3 Zrotation Xrotation Yrotation
    JOINT spine1
    {
      OFFSET 0 23.15396 4.99043
      CHANNELS 3 Zrotation Xrotation Yrotation
      JOINT spine2
      {
        OFFSET 0 20.79997 -5.064912
        CHANNELS 3 Zrotation Xrotation Yrotation
        JOINT neck
        {
          OFFSET 0 14.38658 9.616178
          CHANNELS 3 Zrotation Xrotation Yrotation
          End Site
          {
            OFFSET 0 20 0
          }
        }
      }
      JOINT right_manubrium
      {
        OFFSET -5.722621 16.35077 3.967754
        CHANNELS 3 Zrotation Xrotation Yrotation
        JOINT right_clavicle
        {
          OFFSET -13.16364 1.694482 -4.693211
          CHANNELS 3 Zrotation Xrotation Yrotation
          JOINT right_humerus
          {
            OFFSET -28.5034 -0.3100689 -2.792744
            CHANNELS 3 Zrotation Xrotation Yrotation
            JOINT right_radius
            {
              OFFSET -25.15693 0.02248979 -1.271978
              CHANNELS 3 Zrotation Xrotation Yrotation
              End Site
              {
                OFFSET -15 0 0
              }
            }
          }
        }
      }
      JOINT left_manubrium
      {
        OFFSET 5.722621 16.35077 3.967754
        CHANNELS 3 Zrotation Xrotation Yrotation
        JOINT left_clavicle
        {
          OFFSET 13.16364 1.694482 -4.693211
          CHANNELS 3 Zrotation Xrotation Yrotation
          JOINT left_humerus
          {
            OFFSET 29.39168 -1.063119 -2.237045
            CHANNELS 3 Zrotation Xrotation Yrotation
            JOINT left_radius
            {
              OFFSET 24.59957 -0.9528479 0.9047498
              CHANNELS 3 Zrotation Xrotation Yrotation
              End Site
              {
                OFFSET 15 -0 -0
              }
            }
          }
        }
      }
    }
  }
}
MOTION
Frames: 17
Frame Time: 0.0416666666667
779.846 103.1515 2991.141 4.681307 -5.779387 21.09847 -0.617968 5.305737 4.080354 -0 55.66734 -0 2.143736 4.724295 -5.007038 -5.698341 -8.778964 -8.040722 -0 21.47971 -0 -2.421239 -11.02421 17.48299 0.003557956 -1.661881 6.942692 -0.667474 11.47987 -3.090205 1.522977 21.27458 3.729512 0.5879284 -17.34049 6.333776 -1.364394 -27.02655 11.01845 84.39228 22.91127 -3.160329 -0 0 26.61707 -24.96774 15.91856 18.24832 2.365028 -16.88142 -4.580489 -94.7641 12.90882 36.21788 0 0 -4.955396 4.328478 15.46764 9.377308
782.7512 104.5604 2996.191 4.301745 -5.78864 22.36963 -0.02752065 -1.924623 3.704839 -0 57.47594 -0 1.706566 4.923377 -5.945912 -5.843989 -3.904096 -8.236174 -0 19.25511 -0 -1.887648 -12.51581 16.93663 -0.140093 -1.691461 6.874588 -0.7209938 11.43489 -2.891252 1.496428 21.57599 3.869158 1.050221 -17.074 6.111739 -1.027764 -26.71252 11.13072 83.89566 23.01883 -2.813118 -0 0 26.28979 -25.07881 15.26272 18.05643 2.627015 -17.06973 -4.700393 -95.37401 12.88101 35.84708 0 0 -3.255682 4.831419 15.77965 8.343137
785.4685 105.4945 3000.859 3.914762 -5.873755 23.58462 0.3993807 -8.747943 3.302257 -0 54.2339 -0 0.7385197 3.695877 -6.417721 -5.647907 0.516173 -8.368981 -0 16.46655 -0 -1.245999 -13.94729 16.49865 -0.209075 -1.773129 6.846104 -0.7284178 11.58473 -2.840717 1.43855 21.71758 3.915022 1.418075 -16.8681 5.813084 -0.7568052 -26.58982 11.28325 83.66192 22.90295 -2.801543 -0 0 26.12814 -25.0033 14.76672 17.77613 2.809804 -17.42825 -4.932552 -95.80126 12.71126 35.61225 0 0 -2.127295 5.309449 15.93481 7.436589
788.0888 105.712 3005.398 3.733328 -5.997534 24.63486 0.5102335 -14.61295 2.564006 -0 46.52376 -0 -0.6261835 1.962264 -6.571913 -5.369556 4.685884 -8.417394 -0 13.8978 -0 -0.7839075 -15.44589 15.96454 -0.1820784 -1.919954 6.885754 -0.6795202 11.94398 -2.960111 1.334828 21.65774 3.86278 1.680801 -16.73189 5.42427 -0.5684106 -26.71077 11.48018 83.70723 22.5631 -3.15888 -0 0 26.20188 -24.74372 14.47049 17.41196 2.895296 -17.98085 -5.285247 -96.03351 12.34408 35.60374 0 0 -1.65796 5.7259 15.88509 6.726226
790.6881 105.1997 3010.061 3.69397 -5.809544 25.47904 0.3232658 -19.54667 1.395849 -0 35.87021 -0 -1.763571 0.5555459 -6.636667 -5.216259 8.655759 -8.290743 -0 12.13596 -0 -0.8629631 -17.16304 15.05392 -0.06795236 -2.126856 7.001707 -0.57971 12.47491 -3.224256 1.187436 21.41396 3.729164 1.854851 -16.65456 4.955471 -0.4514716 -27.0539 11.71484 83.9655 22.04155 -3.812699 -0 0 26.51385 -24.34644 14.35426 16.98363 2.893906 -18.69574 -5.735088 -96.11243 11.79722 35.82621 0 0 -1.749009 6.059158 15.63715 6.22034
793.3262 104.1266 3015.044 3.621915 -5.070825 26.14308 0.02468575 -23.53011 0.08323915 -0 24.4105 -0 -2.214613 -0.1105868 -6.748109 -5.265168 12.25635 -7.98471 -0 11.63345 -0 -1.654913 -18.96608 13.74189 0.1089202 -2.371861 7.183359 -0.4427496 13.10751 -3.586218 1.010564 21.0356 3.538268 1.955125 -16.62294 4.440985 -0.3912409 -27.55606 11.96806 84.35153 21.40782 -4.645408 -0 0 27.01537 -23.86491 14.373 16.52391 2.824413 -19.49923 -6.234007 -96.08126 11.13928 36.22972 0 0 -2.254695 6.293157 15.22901 5.915271
796.0395 102.7652 3020.463 3.413191 -3.937212 26.69636 -0.06998498 -26.24358 -0.8652087 -0 14.62151 -0 -2.050748 -0.0399374 -6.923121 -5.436561 15.22899 -7.620492 -0 12.79572 -0 -3.019425 -20.33675 12.34469 0.3156441 -2.619294 7.40485 -0.2883306 13.74648 -3.986835 0.8246297 20.58902 3.320141 1.988022 -16.62727 3.936287 -0.3802802 -28.13386 12.20811 84.78549 20.76313 -5.517722 -0 0 27.62274 -23.34981 14.47081 16.08071 2.706633 -20.28601 -6.713366 -95.96868 10.46184 36.74231 0 0 -3.029677 6.417853 14.72029 5.81084
798.8341 101.4188 3026.349 3.088273 -2.919623 27.19845 0.35445 -27.29681 -1.013213 -0 8.582625 -0 -1.72386 0.4244191 -7.131146 -5.521536 17.36659 -7.343654 -0 15.96893 -0 -4.573717 -20.58797 11.3151 0.5131078 -2.828028 7.626415 -0.1419806 14.28604 -4.357807 0.6554031 20.15337 3.10986 1.957245 -16.65957 3.510983 -0.4156924 -28.69279 12.39738 85.19596 20.22083 -6.280406 -0 0 28.22808 -22.85817 14.59137 15.71603 2.564023 -20.93517 -7.096895 -95.80007 9.867251 37.27735 0 0 -3.915694 6.43544 14.19609 5.894002
801.6868 100.3763 3032.666 2.736466 -2.55866 27.62633 1.434486 -26.5154 -0.2293614 -0 7.081233 -0 -1.702448 0.7516492 -7.370362 -5.300673 18.51331 -7.199397 -0 21.40482 -0 -5.918222 -19.2419 10.96781 0.66711 -2.967063 7.806228 -0.02846268 14.64447 -4.638959 0.5295507 19.80026 2.936963 1.865045 -16.71448 3.229531 -0.4960466 -29.15215 12.50606 85.53053 19.8617 -6.810704 -0 0 28.73283 -22.45234 14.70378 15.4931 2.419579 -21.34547 -7.325148 -95.60214 9.445934 37.7538 0 0 -4.766953 6.356856 13.74981 6.136791
804.5428 99.88532 3039.29 2.432573 -3.104591 27.84483 3.053515 -24.0259 1.292521 -0 9.472681 -0 -2.239596 0.39769 -7.658119 -4.679088 18.41585 -7.153321 -0 29.11795 -0 -6.806273 -16.31008 11.39374 0.7630274 -3.0262 7.920466 0.03944538 14.79283 -4.803262 0.4632969 19.5629 2.812667 1.708235 -16.79239 3.126033 -0.6230186 -29.47732 12.52219 85.77291 19.70715 -7.057936 -0 0 29.09084 -22.17203 14.81483 15.45014 2.284249 -21.4717 -7.374734 -95.38784 9.242385 38.13121 0 0 -5.520154 6.189853 13.4381 6.520406
807.3239 100.0891 3045.99 2.23874 -4.407193 27.6821 4.82223 -20.19785 3.044612 -0 13.94562 -0 -3.31412 -0.9890434 -7.887808 -3.780442 16.67325 -7.212182 -0 38.51052 -0 -7.218214 -12.47697 12.46565 0.8086143 -3.009836 7.970034 0.06469153 14.74962 -4.86367 0.4551779 19.42953 2.731701 1.480719 -16.89888 3.196458 -0.8013839 -29.6779 12.44962 85.94815 19.73843 -7.059797 -0 0 29.30603 -22.01126 14.949 15.57884 2.153881 -21.33182 -7.257149 -95.14059 9.244359 38.4123 0 0 -6.226514 5.938749 13.25556 7.047183
809.9718 100.9405 3052.464 2.233179 -5.897408 27.10045 6.118114 -15.57705 4.304151 -0 17.91896 -0 -4.486178 -3.251923 -7.708651 -2.959225 12.95839 -7.442989 -0 47.95301 -0 -7.469536 -9.054203 13.70739 0.8255181 -2.923689 7.969427 0.05990565 14.55655 -4.858393 0.4894166 19.36613 2.686372 1.185015 -17.0392 3.41039 -1.032002 -29.77273 12.30155 86.10953 19.93106 -6.925027 -0 0 29.38641 -21.92824 15.12341 15.8226 2.019091 -20.99027 -7.00686 -94.81932 9.401932 38.60761 0 0 -7.007777 5.620793 13.15532 7.718426
812.5006 102.192 3058.501 2.495171 -6.832034 26.28338 6.428831 -10.68303 4.687854 -0 19.19132 -0 -4.927788 -5.527557 -6.852799 -2.601542 7.406614 -7.655556 -0 55.31167 -0 -7.851806 -7.140011 14.53714 0.8417718 -2.775911 7.936369 0.04175424 14.27451 -4.836063 0.5441423 19.335 2.669675 0.8381595 -17.21318 3.719641 -1.304276 -29.77626 12.10221 86.32021 20.24736 -6.801736 -0 0 29.32778 -21.86918 15.34694 16.095 1.873018 -20.54492 -6.678833 -94.38512 9.648786 38.71742 0 0 -7.984755 5.274541 13.0829 8.507415
814.9576 103.5099 3064.125 3.059207 -7.033452 25.45144 5.86326 -5.600333 4.653183 -0 17.60391 -0 -4.296006 -7.011515 -5.721197 -2.625579 0.6623832 -7.338906 -0 59.44126 -0 -8.085783 -6.609694 15.11864 0.8735314 -2.583984 7.879776 0.02033108 13.96635 -4.82524 0.6098338 19.31859 2.673569 0.4654283 -17.41251 4.083494 -1.594332 -29.69846 11.88171 86.60499 20.62046 -6.779331 -0 0 29.13387 -21.81966 15.63355 16.34026 1.718433 -20.07616 -6.329338 -93.84939 9.945414 38.73047 0 0 -9.158217 4.937208 13.02496 9.352156
817.3402 104.5644 3069.458 3.733719 -6.966439 24.68018 5.067866 -0.3668277 4.661023 -0 14.82122 -0 -3.341914 -8.115266 -4.816977 -2.356295 -6.469198 -6.386723 -0 59.50578 -0 -7.792924 -6.675557 15.99503 0.9085171 -2.364601 7.791908 -0.01058008 13.6502 -4.808388 0.7014953 19.33559 2.697318 0.08575397 -17.6254 4.505191 -1.876202 -29.53351 11.65478 86.91431 20.99649 -6.806287 -0 0 28.82387 -21.84025 16.00779 16.58161 1.569613 -19.57966 -5.975697 -93.27744 10.3145 38.6242 0 0 -10.37415 4.609633 13.02772 10.19246
819.6483 105.0849 3074.581 4.090481 -6.899949 23.93158 4.638804 4.457229 4.586779 -0 12.31126 -0 -2.872609 -9.61468 -4.072931 -1.311852 -13.1337 -5.108859 -0 54.55054 -0 -6.972276 -6.782295 17.13973 0.9345699 -2.131787 7.671419 -0.05546115 13.33189 -4.772461 0.8316931 19.38989 2.734987 -0.3017836 -17.84952 4.994975 -2.140998 -29.2959 11.42537 87.20747 21.33752 -6.822504 -0 0 28.44678 -21.97486 16.49856 16.85363 1.43025 -19.03211 -5.619479 -92.70675 10.77394 38.40468 0 0 -11.54512 4.265055 13.11089 11.01978
821.9601 104.9485 3079.579 3.867714 -6.723561 23.14482 4.65106 8.473519 4.257336 -0 10.63939 -0 -2.891815 -11.65892 -3.270866 0.2706896 -18.66803 -3.878664 -0 45.31536 -0 -5.993744 -6.739717 18.23732 0.9481353 -1.906016 7.53129 -0.110427 13.03583 -4.724195 0.9947318 19.4637 2.775716 -0.6875276 -18.07829 5.52758 -2.379582 -29.0247 11.20535 87.4659 21.6048 -6.815519 -0 0 28.07039 -22.21635 17.0967 17.15269 1.30163 -18.45565 -5.280727 -92.16303 11.29383 38.10695 0 0 -12.62621 3.896305 13.25241 11.81425
